<svg xmlns="http://www.w3.org/2000/svg" viewBox="0 0 320 220" role="img" aria-label="Barbarian">
  <defs>
    <linearGradient id="bg" x1="0" y1="0" x2="1" y2="1">
      <stop stop-color="#251611"/>
      <stop offset=".55" stop-color="#8e3e32"/>
      <stop offset="1" stop-color="#f2c66d"/>
    </linearGradient>
  </defs>
  <rect width="320" height="220" fill="url(#bg)"/>
  <path d="M0 178 C60 140 110 168 160 132 C220 88 260 100 320 70 L320 220 L0 220 Z" fill="#171312" opacity=".78"/>
  <path d="M88 70 L112 44 L140 86 L118 96 Z" fill="#f2c66d"/>
  <path d="M232 70 L208 44 L180 86 L202 96 Z" fill="#f2c66d"/>
  <circle cx="160" cy="88" r="42" fill="#f0d2b0"/>
  <path d="M110 190 C118 134 137 113 160 113 C184 113 203 134 211 190 Z" fill="#3b1c18"/>
  <path d="M126 188 C132 148 144 132 160 132 C177 132 189 148 194 188 Z" fill="#b75343"/>
  <path d="M128 91 C148 110 173 110 192 91" fill="none" stroke="#391713" stroke-width="8" stroke-linecap="round"/>
</svg>
