<svg xmlns="http://www.w3.org/2000/svg" viewBox="0 0 320 220" role="img" aria-label="Runekeeper">
  <defs>
    <linearGradient id="bg" x1="0" y1="0" x2="1" y2="1">
      <stop stop-color="#172737"/>
      <stop offset=".55" stop-color="#2f6f78"/>
      <stop offset="1" stop-color="#d9b84f"/>
    </linearGradient>
    <radialGradient id="rune" cx=".5" cy=".42" r=".5">
      <stop stop-color="#fff2a8"/>
      <stop offset=".45" stop-color="#7aa7d9"/>
      <stop offset="1" stop-color="#172737"/>
    </radialGradient>
  </defs>
  <rect width="320" height="220" fill="url(#bg)"/>
  <path d="M0 182 C58 145 105 169 157 139 C217 105 254 116 320 78 L320 220 L0 220 Z" fill="#111412" opacity=".72"/>
  <circle cx="160" cy="82" r="46" fill="url(#rune)" opacity=".9"/>
  <path d="M129 75 160 38 191 75 174 75 174 128 146 128 146 75 Z" fill="#fffaf0" opacity=".82"/>
  <path d="M98 188 C106 142 129 117 160 117 C192 117 215 142 223 188 Z" fill="#1c2120"/>
  <path d="M121 188 C126 154 141 137 160 137 C180 137 195 154 199 188 Z" fill="#7aa7d9" opacity=".75"/>
</svg>
