<svg xmlns="http://www.w3.org/2000/svg" viewBox="0 0 320 448" role="img" aria-labelledby="title desc">
  <title id="title">Ember Flask</title>
  <desc id="desc">A glass flask filled with orange healing embers.</desc>
  <defs>
    <linearGradient id="bg" x1="0" x2="1" y1="0" y2="1">
      <stop offset="0" stop-color="#5f2635"/>
      <stop offset="1" stop-color="#263d45"/>
    </linearGradient>
    <linearGradient id="flame" x1="0" x2="0" y1="0" y2="1">
      <stop offset="0" stop-color="#ffe7a3"/>
      <stop offset=".52" stop-color="#f47b35"/>
      <stop offset="1" stop-color="#a83232"/>
    </linearGradient>
  </defs>
  <rect width="320" height="448" rx="22" fill="url(#bg)"/>
  <rect x="18" y="18" width="284" height="412" rx="18" fill="none" stroke="#f0b365" stroke-width="6"/>
  <path d="M132 92h56v48l50 74c14 21 18 45 10 70-11 34-45 58-88 58s-77-24-88-58c-8-25-4-49 10-70l50-74z" fill="#dfefff" opacity=".28" stroke="#f8f4df" stroke-width="8" stroke-linejoin="round"/>
  <path d="M126 82h68" stroke="#f8f4df" stroke-width="16" stroke-linecap="round"/>
  <path d="M104 248c30 14 82 14 112 0 18 54-16 86-56 86s-74-32-56-86z" fill="url(#flame)"/>
  <path d="M160 302c-26-28 8-48 0-78 37 31 40 80 0 98z" fill="#fff2a9" opacity=".85"/>
  <circle cx="208" cy="148" r="16" fill="#fff4c7" opacity=".72"/>
  <circle cx="118" cy="180" r="10" fill="#fff4c7" opacity=".52"/>
  <path d="M82 366h156" fill="none" stroke="#ffe1a1" stroke-width="10" stroke-linecap="round" opacity=".78"/>
  <path d="M110 396h100" fill="none" stroke="#ffe1a1" stroke-width="8" stroke-linecap="round" opacity=".58"/>
</svg>
