<svg xmlns="http://www.w3.org/2000/svg" viewBox="0 0 800 520" role="img" aria-hidden="true">
  <defs>
    <radialGradient id="glow" cx=".48" cy=".48" r=".58"><stop stop-color="#e8ffca"/><stop offset=".45" stop-color="#69b779"/><stop offset="1" stop-color="#163025"/></radialGradient>
    <filter id="paint"><feTurbulence type="fractalNoise" baseFrequency=".012" numOctaves="4"/><feDisplacementMap in="SourceGraphic" scale="16"/></filter>
  </defs>
  <rect width="800" height="520" fill="url(#glow)"/>
  <path d="M0 402 C140 330 260 368 410 298 C560 230 690 266 800 198 L800 520 L0 520 Z" fill="#132019" opacity=".72"/>
  <g filter="url(#paint)">
    <circle cx="402" cy="250" r="150" fill="#d9f8b0" opacity=".45"/>
    <path d="M400 110 C454 170 470 224 446 284 C424 338 386 382 400 452 C336 382 322 314 354 254 C380 206 410 168 400 110 Z" fill="#f2ffe0"/>
    <path d="M260 260 C334 236 464 236 540 260 C468 318 334 318 260 260 Z" fill="#75c889" opacity=".88"/>
    <circle cx="400" cy="260" r="44" fill="#fff5b9" opacity=".92"/>
  </g>
</svg>
